<svg xmlns="http://www.w3.org/2000/svg" width="56" height="56" viewBox="0 0 56 56">
    <defs>
        <style>
            .cls-2{fill:#7039b1}
        </style>
    </defs>
    <g id="iconAfore" transform="translate(-69 -1391)">
        <path id="Polygon_1" fill="#ffca00" d="M21.647 7.7a5 5 0 0 1 8.706 0l17.43 30.84A5 5 0 0 1 43.431 46H8.569a5 5 0 0 1-4.353-7.46z" transform="translate(71 1401)"/>
        <g id="Icons_Coppel6" transform="translate(69 1391)">
            <g id="Group_19" transform="translate(-217.253 -3675.376)">
                <path id="Path_107" d="M226.479 3703.417a2.637 2.637 0 0 0 .3 1.223q1.793 3.6 3.582 7.2 2.882 5.79 5.769 11.576a10 10 0 0 1 1.04 2.883 16.256 16.256 0 0 1 .174 1.68c.031.563.015 1.129.018 1.694a1.64 1.64 0 0 1-.008.269.47.47 0 0 1-.932.036 3.5 3.5 0 0 1-.018-.767 9.788 9.788 0 0 0-.906-5.235c-1.536-3.1-3.02-6.234-4.528-9.352q-1.86-3.846-3.727-7.687c-.336-.693-.675-1.384-1.006-2.079a3.234 3.234 0 0 1 5.7-3.059 3.876 3.876 0 0 1 .271.757 41.344 41.344 0 0 0 2.881 7.454 14.133 14.133 0 0 0 1.648 2.549 5.029 5.029 0 0 0 1.476 1.274.711.711 0 0 1 .3.324.4.4 0 0 1-.139.484.441.441 0 0 1-.571.031 8.362 8.362 0 0 1-1.112-.937 14 14 0 0 1-2.292-3.677 53.278 53.278 0 0 1-2.809-7.649 2.277 2.277 0 0 0-1.4-1.448 2.653 2.653 0 0 0-3.649 1.88 5.34 5.34 0 0 0-.062.576z" class="cls-2" transform="translate(0 -2.005)"/>
                <path id="Path_108" d="M255.723 3729.406c.021-.961.027-1.923.068-2.884a5.563 5.563 0 0 1 .585-2.292q1.635-3.249 3.244-6.512 1.779-3.606 3.537-7.224c.945-1.936 1.88-3.879 2.833-5.811a2.672 2.672 0 0 0-.614-3.258 2.588 2.588 0 0 0-4.1 1.035c-.669 1.872-1.337 3.744-2.048 5.6a18.506 18.506 0 0 1-1.983 3.9c-.311.452-.689.859-1.045 1.279a1.629 1.629 0 0 1-.32.275.46.46 0 0 1-.654-.056.481.481 0 0 1 .053-.661c.189-.192.4-.36.582-.558a12.626 12.626 0 0 0 2.011-3.175 60.608 60.608 0 0 0 2.364-5.849q.169-.47.336-.942a3.144 3.144 0 0 1 2.452-2.1 3.274 3.274 0 0 1 3.9 3.47 3.49 3.49 0 0 1-.409 1.354q-1.2 2.411-2.394 4.828-2.6 5.263-5.187 10.53c-.644 1.312-1.264 2.637-1.9 3.952a4.587 4.587 0 0 0-.506 2.226c.043 1.038.063 2.076.091 3.115a2.147 2.147 0 0 1 0 .308.462.462 0 0 1-.916.019 5.235 5.235 0 0 1 0-.577z" class="cls-2" transform="translate(-2.294 -2)"/>
                <path id="Path_109" d="M246.409 3712.445a8.565 8.565 0 1 1 8.577-8.516 8.409 8.409 0 0 1-8.577 8.516zm-.2-.759a7.959 7.959 0 1 0-7.958-7.9 7.9 7.9 0 0 0 7.959 7.9z" class="cls-2" transform="translate(-.936 -1.468)"/>
                <path id="Path_110" d="M253.029 3683.884a1.116 1.116 0 0 1-.408.878q-.864.766-1.731 1.527a1.316 1.316 0 0 1-.15.12.72.72 0 0 0-.307.8c.114.837.2 1.679.266 2.522a.976.976 0 0 1-.491.943.954.954 0 0 1-1.057 0c-.439-.266-.87-.544-1.3-.817-.282-.177-.576-.34-.842-.538a.869.869 0 0 0-1-.085c-.716.343-1.455.641-2.184.958a1.794 1.794 0 0 1-.25.1.774.774 0 0 1-.974-.916c.191-.877.388-1.752.6-2.623a.834.834 0 0 0-.253-.866q-.9-.9-1.768-1.823a1.21 1.21 0 0 1-.3-.478.789.789 0 0 1 .657-.964c.811-.117 1.626-.212 2.439-.317.1-.013.2-.034.3-.041a.629.629 0 0 0 .55-.412c.485-.962.984-1.917 1.478-2.875l.086-.172a.644.644 0 0 1 .593-.421.66.66 0 0 1 .61.453c.46 1 .931 2 1.379 3.009a.723.723 0 0 0 .624.473c.823.125 1.64.289 2.457.453a1.117 1.117 0 0 1 .976 1.112zm-10.25 5.529c-.012.487.338.75.742.613a2.767 2.767 0 0 0 .351-.156c.709-.359 1.421-.712 2.124-1.084a1.032 1.032 0 0 1 1.092.023c.065.04.134.076.2.113l2.062 1.119c.147.08.294.168.464.045s.138-.287.125-.453c0-.039-.011-.076-.017-.115-.122-.81-.232-1.622-.37-2.43a1.265 1.265 0 0 1 .477-1.255c.628-.548 1.241-1.112 1.853-1.678.083-.076.186-.229.159-.3s-.191-.133-.3-.181a1.308 1.308 0 0 0-.261-.062c-.7-.139-1.4-.3-2.112-.411a1.424 1.424 0 0 1-1.2-1c-.341-.9-.731-1.778-1.1-2.665a1.237 1.237 0 0 0-.117-.181.983.983 0 0 0-.151.161c-.475.806-.978 1.6-1.408 2.428a1.347 1.347 0 0 1-1.355.807h-.115c-.754.052-1.508.1-2.261.162a.527.527 0 0 0-.412.866 1.394 1.394 0 0 0 .123.147l.854.939c.292.323.585.646.876.971a.882.882 0 0 1 .226.883c-.117.432-.2.874-.287 1.314-.093.48-.181.959-.262 1.38z" class="cls-2" transform="translate(-1.174)"/>
                <path id="Path_111" d="M259.712 3689.835c-.175.494.082.85.519 1.133a2.211 2.211 0 0 1 .356.295.641.641 0 0 1-.29 1.114 9.444 9.444 0 0 1-.941.193.506.506 0 0 0-.445.361c-.1.29-.234.569-.344.857a.438.438 0 0 1-.4.313.412.412 0 0 1-.4-.249c-.158-.265-.328-.522-.484-.787a.528.528 0 0 0-.535-.294c-.32.021-.641.013-.962.025a.49.49 0 0 1-.494-.229.465.465 0 0 1 .073-.536c.175-.253.343-.512.527-.758a.461.461 0 0 0 .055-.5c-.158-.379-.3-.764-.443-1.149a.891.891 0 0 1-.075-.334c.011-.326.274-.5.638-.407a9.433 9.433 0 0 1 1.065.331.619.619 0 0 0 .731-.109 5.839 5.839 0 0 1 .652-.477.731.731 0 0 1 .8-.046.71.71 0 0 1 .391.7c.003.164.006.331.006.553zm.264 1.928c-.059-.047-.1-.081-.139-.109-.223-.15-.448-.3-.672-.447a.8.8 0 0 1-.4-.776c.018-.2 0-.41 0-.615 0-.136-.065-.157-.167-.091a4.9 4.9 0 0 0-.413.282.915.915 0 0 1-1.073.12c-.215-.111-.45-.185-.674-.28-.129-.055-.167-.015-.136.112.066.275.124.55.2.821a.624.624 0 0 1-.155.637c-.233.255-.465.512-.688.776-.053.063-.119.185-.093.227a.358.358 0 0 0 .24.138c.344.036.688.063 1.034.069a.526.526 0 0 1 .469.271c.183.278.381.546.586.809.056.073.182.169.236.148a.415.415 0 0 0 .2-.241c.1-.316.194-.638.266-.962a.635.635 0 0 1 .467-.5c.268-.085.531-.189.793-.29a.529.529 0 0 0 .119-.099z" class="cls-2" transform="translate(-2.303 -.855)"/>
                <path id="Path_112" d="M238.511 3692.557c-.8-.023-.8-.023-1.237.666-.082.13-.159.263-.241.394a.426.426 0 0 1-.812-.067c-.1-.275-.229-.543-.329-.82a.48.48 0 0 0-.43-.368c-.316-.04-.626-.133-.939-.2a.605.605 0 0 1-.51-.463.619.619 0 0 1 .208-.659c.243-.208.481-.424.733-.622a.41.41 0 0 0 .171-.427c-.041-.3-.035-.613-.046-.92a.729.729 0 0 1 .389-.7.746.746 0 0 1 .834.056c.221.152.444.305.652.475a.566.566 0 0 0 .631.114c.333-.133.685-.214 1.025-.327a.506.506 0 0 1 .685.71c-.147.368-.275.746-.435 1.108a.523.523 0 0 0 .074.6 8.339 8.339 0 0 1 .5.729c.248.4.078.709-.385.72-.179.004-.358.001-.538.001zm-.021-2.817c.047-.141-.01-.162-.129-.114-.25.1-.5.2-.748.305a.893.893 0 0 1-.911-.083c-.18-.122-.362-.243-.544-.363-.093-.061-.147-.034-.139.078.01.166.034.331.041.5a.987.987 0 0 1-.519.995c-.224.125-.429.28-.641.425-.089.061-.085.115.023.153.217.078.428.178.651.236a.825.825 0 0 1 .676.733 5.52 5.52 0 0 0 .227.854c.081.249.219.274.382.077a4.967 4.967 0 0 0 .5-.682.811.811 0 0 1 .842-.468 4.409 4.409 0 0 0 .841-.062c.2-.023.241-.114.134-.284a1.965 1.965 0 0 0-.193-.238c-.17-.193-.335-.388-.511-.574a.648.648 0 0 1-.172-.7c.081-.26.128-.528.19-.788z" class="cls-2" transform="translate(-.635 -.836)"/>
            </g>
            <path id="Rectangle_33" fill="none" d="M0 0H56V56H0z"/>
        </g>
    </g>
</svg>
