<svg xmlns="http://www.w3.org/2000/svg" width="56" height="56" viewBox="0 0 56 56">
    <defs>
        <style>
            .cls-3{fill:#7039b1}
        </style>
    </defs>
    <g id="iconCompras" transform="translate(-69 -1061)">
        <circle id="Ellipse_106" cx="20" cy="20" r="20" fill="#ffca00" transform="translate(85 1077)"/>
        <g id="Icons_Coppel1" transform="translate(69 1061)">
            <path id="Rectangle_28" fill="none" d="M0 0H56V56H0z"/>
            <g id="Group_21" transform="translate(-114.781 -3424.288)">
                <path id="Path_122" d="M129.759 3449.5c.336 0 .624.012.911 0a1.375 1.375 0 0 1 1.607 1.439c.093 1.28.225 2.557.335 3.836q.127 1.483.241 2.969c.078 1.026.135 2.054.224 3.079a1.62 1.62 0 0 1-1.7 1.774c-2.132-.049-4.266-.053-6.4-.083-.836-.011-1.671-.042-2.507-.067a1.417 1.417 0 0 1-1.444-1.6c.126-1.581.277-3.159.406-4.74.091-1.11.164-2.223.244-3.333.05-.688.089-1.379.151-2.065a1.154 1.154 0 0 1 1.135-1.069c.326-.016.654 0 .982-.008s.339-.029.31-.357c-.046-.519-.1-1.039-.1-1.558a2.876 2.876 0 0 1 5.687-.514 7.614 7.614 0 0 1-.007 1.483c-.009.253-.046.504-.075.814zm-.887 11.723v-.017c.8 0 1.6.008 2.4 0 .407-.006.449-.069.428-.485-.02-.4-.051-.8-.065-1.2q-.108-2.851-.209-5.7c-.033-.956-.054-1.914-.088-2.87-.016-.432-.175-.573-.611-.585-.363-.009-.726-.027-1.09-.034q-1.2-.025-2.4-.041c-1.381-.022-2.763-.048-4.145-.06a.589.589 0 0 0-.65.625c-.071 1.464-.143 2.928-.205 4.393-.048 1.137-.083 2.276-.123 3.414q-.038 1.054-.071 2.107c-.014.455.112.585.576.582.266 0 .532-.028.8-.032q2.727-.054 5.453-.098zm.124-11.714c-.022-.282-.028-.511-.059-.738a7.622 7.622 0 0 0-.214-1.319 1.747 1.747 0 0 0-1.955-1.156 1.847 1.847 0 0 0-1.487 1.657c-.033.434-.077.868-.12 1.3-.031.323-.018.346.324.345.666 0 1.332 0 2-.019.49-.011.983-.046 1.515-.071z" class="cls-3" transform="translate(0 -1.949)"/>
                <path id="Path_123" d="M169.218 3453.422a8.839 8.839 0 1 1-8.722-8.823 8.86 8.86 0 0 1 8.722 8.823zm-8.513-7.614a7.8 7.8 0 1 0 7.868 7.849 7.8 7.8 0 0 0-7.867-7.849z" class="cls-3" transform="translate(-4.68 -1.899)"/>
                <path id="Path_124" d="M160.353 3470.6c-.081.1-.166.193-.244.294a18.885 18.885 0 0 1-10.538 6.945 18.332 18.332 0 0 1-5.729.531 18.973 18.973 0 0 1-11.978-5.13c-.436-.4-.846-.834-1.246-1.271a1.02 1.02 0 0 1-.238-.507.629.629 0 0 1 .382-.711.741.741 0 0 1 .837.155c.2.208.385.436.583.649a17.341 17.341 0 0 0 9.729 5.438 17.743 17.743 0 0 0 16.071-4.768c.59-.553 1.1-1.192 1.644-1.794a.625.625 0 0 0 .158-.338c-.193.057-.387.111-.579.171-.451.141-.9.288-1.35.427-.225.07-.385 0-.448-.169s.026-.323.264-.4c.829-.271 1.66-.531 2.489-.8.138-.044.273-.1.406-.154.307-.134.5-.024.5.318.006.315 0 .631-.019.945-.037.714-.084 1.427-.127 2.14v.072c0 .2-.088.34-.293.341s-.29-.151-.284-.345c.013-.387.03-.774.048-1.162.013-.284.03-.568.045-.851z" class="cls-3" transform="translate(-1.935 -5.446)"/>
                <path id="Path_125" d="M148.152 3432.316a18.91 18.91 0 0 1 11.951 4.425c.559.461 1.068.985 1.6 1.484a.75.75 0 0 1 .252.72.717.717 0 0 1-.518.6.81.81 0 0 1-.857-.248c-.556-.589-1.1-1.2-1.7-1.74a17.582 17.582 0 0 0-9.168-4.4c-.738-.118-1.491-.152-2.237-.225a1 1 0 0 1-.179-.017c-.164-.049-.288-.144-.266-.336a.286.286 0 0 1 .326-.269z" class="cls-3" transform="translate(-3.93)"/>
                <path id="Path_126" d="M131.651 3439.069c.641-.143 1.241-.277 1.841-.408a2.191 2.191 0 0 1 .359-.055.254.254 0 0 1 .307.236.272.272 0 0 1-.215.33c-.377.09-.755.172-1.133.256-.649.145-1.3.292-1.949.434-.348.076-.487-.069-.435-.427.137-.946.267-1.894.4-2.84.014-.1.034-.19.056-.284a.263.263 0 0 1 .319-.224.253.253 0 0 1 .245.3c-.026.29-.064.578-.1.865-.052.393-.109.784-.164 1.176l.067.041c.117-.115.234-.229.348-.346a18.814 18.814 0 0 1 8.764-5.137c.315-.084.635-.153.954-.225a.424.424 0 0 1 .248-.017c.106.052.238.136.267.236.024.076-.068.221-.148.289a.738.738 0 0 1-.308.095 18.209 18.209 0 0 0-9.531 5.39q-.087.092-.167.191c-.014.015-.01.043-.025.124z" class="cls-3" transform="translate(-1.398 -.054)"/>
                <path id="Path_127" d="M145.544 3432.391h.265a.233.233 0 0 1 .253.246c.009.165-.05.286-.227.313s-.382.054-.574.066c-.225.014-.4-.109-.392-.279a.337.337 0 0 1 .326-.327c.105-.016.217-.01.349-.019z" class="cls-3" transform="translate(-3.441 -.01)"/>
                <path id="Path_128" d="M161.853 3458.488a3.021 3.021 0 0 1-1.533-.414 1.914 1.914 0 0 1-.882-.979 1.162 1.162 0 0 1-.077-.351c-.008-.147.063-.282.221-.279a.977.977 0 0 1 .347.128c.025.011.032.063.048.095a2.194 2.194 0 0 0 3.463.559 1.441 1.441 0 0 0 .4-1.5 1.482 1.482 0 0 0-1.3-.965c-.477-.076-.964-.082-1.441-.157a2.123 2.123 0 0 1-1.258-.676 2.009 2.009 0 0 1-.164-2.459 2.563 2.563 0 0 1 2.6-1.175 3.07 3.07 0 0 1 1.55.57 1.82 1.82 0 0 1 .651.855 1.433 1.433 0 0 1 .059.209.31.31 0 0 1-.214.4c-.2.057-.316-.052-.4-.226a2.176 2.176 0 0 0-3.5-.541 1.372 1.372 0 0 0 .576 2.33 6.406 6.406 0 0 0 .961.159 6.75 6.75 0 0 1 1.276.236 1.938 1.938 0 0 1 1.061 2.859 2.455 2.455 0 0 1-2.444 1.322z" class="cls-3" transform="translate(-5.69 -2.65)"/>
                <path id="Path_129" d="M162.863 3448.788c0 .193.01.387 0 .579a.276.276 0 0 1-.3.288.249.249 0 0 1-.268-.276c-.007-.4-.008-.8 0-1.2a.269.269 0 0 1 .3-.3.292.292 0 0 1 .28.32v.581z" class="cls-3" transform="translate(-6.072 -2.25)"/>
                <path id="Path_130" d="M162.863 3460.863c0 .181.008.363 0 .543a.285.285 0 0 1-.3.294.263.263 0 0 1-.267-.285c-.006-.362-.006-.724 0-1.086a.243.243 0 0 1 .255-.252.267.267 0 0 1 .305.245 5.116 5.116 0 0 1 0 .542z" class="cls-3" transform="translate(-6.073 -4.01)"/>
            </g>
        </g>
    </g>
</svg>
