<svg xmlns="http://www.w3.org/2000/svg" width="56" height="56" viewBox="0 0 56 56">
    <defs>
        <style>
            .cls-2{fill:#7039b1}
        </style>
    </defs>
    <g id="iconCanjea" transform="translate(-69 -1721)">
        <rect id="Rectangle_77" width="40" height="40" fill="#ffca00" rx="5" transform="translate(85 1737)"/>
        <g id="Icons_Coppel4" transform="translate(69 1721)">
            <g id="Group_18" transform="translate(-235.568 -3430.593)">
                <path id="Path_81" d="M266.874 3466.538v7.194c0 .487 0 .491.5.488 1.517-.006 3.034-.009 4.55-.025.664-.006 1.327-.023 1.99-.064a3.49 3.49 0 0 0 2.495-1.229 2.735 2.735 0 0 0 .705-1.862q-.034-4.136-.086-8.273c-.024-1.992-.058-3.984-.08-5.977a1.343 1.343 0 0 1 .092-.545.769.769 0 0 1 1.45.341c.01.851.006 1.7 0 2.556-.024 1.92-.058 3.84-.084 5.759-.029 2.079-.048 4.158-.082 6.237a4.223 4.223 0 0 1-2.733 3.731 4.981 4.981 0 0 1-1.9.363c-1.545-.015-3.091-.015-4.636-.03q-3.876-.037-7.753-.086c-2.512-.028-5.024-.051-7.537-.089a4.613 4.613 0 0 1-3.587-1.535 3.653 3.653 0 0 1-.926-2.5c0-1.025.031-2.049.043-3.074.017-1.488.026-2.975.042-4.463l.086-7.8a.339.339 0 0 1 0-.086c.027-.086.06-.17.091-.255a1.529 1.529 0 0 1 .045.242c.026 1.646.055 3.292.073 4.937.038 3.466.064 6.931.1 10.4a3.484 3.484 0 0 0 2.966 3.39 11 11 0 0 0 1.94.1c3.119-.022 6.237-.06 9.357-.1.635-.007 1.269-.038 1.9-.04.248 0 .338-.1.319-.337-.01-.128 0-.259 0-.389v-14.085a2.175 2.175 0 0 1 .028-.473c.037-.169.168-.3.345-.242a.556.556 0 0 1 .268.285.888.888 0 0 1 .013.342z" class="cls-2" transform="translate(.373 .773)"/>
                <path id="Path_82" d="M272.519 3442.32c-.073.416-.2 1.184-.34 1.95-.133.723-.277 1.445-.423 2.165a1.242 1.242 0 0 1-1.5 1.089c-1.608-.259-3.209-.568-4.815-.85-.181-.031-.254-.1-.222-.288a.4.4 0 0 0-.033-.149c-.046.029-.1.055-.138.088-.3.228-.6.451-.879.691a.842.842 0 0 0-.243.327q-1.951 5.209-3.891 10.423a2.887 2.887 0 0 1-.146.361.515.515 0 0 1-.914.123c-.488-.531-.971-1.069-1.438-1.62a1.662 1.662 0 0 0-.894-.565c-.546-.136-1.086-.3-1.628-.449s-.709-.437-.533-.969.38-1.029.572-1.542c.482-1.283.958-2.569 1.456-3.846.072-.185.053-.581.358-.471.247.088.022.381-.044.566-.609 1.713-1.229 3.422-1.846 5.132-.034.1-.069.19-.1.286-.069.216-.017.363.223.423.573.145 1.148.288 1.716.451.246.071.3-.073.361-.247q.324-.941.654-1.881a1.559 1.559 0 0 1 .135-.317.388.388 0 0 1 .531-.149.633.633 0 0 1 .251.4.785.785 0 0 1-.106.41c-.278.635-.558 1.268-.851 1.9a.42.42 0 0 0 .08.54c.428.449.835.92 1.258 1.374.257.277.29.271.416-.079.4-1.1.786-2.2 1.18-3.3l2.347-6.563c.024-.067.044-.138.072-.2.069-.16.027-.236-.152-.259a2.176 2.176 0 0 1-.676-.132c-.382-.191-.736-.438-1.1-.667-.1-.061-.166-.186-.225.043a.409.409 0 0 1-.271.218c-1.574.36-3.149.724-4.731 1.054a1.268 1.268 0 0 1-1.583-1.038q-.506-2.1-.969-4.216a1.374 1.374 0 0 1 1.118-1.75c1.255-.27 2.519-.5 3.776-.757a1.392 1.392 0 0 1 1.719 1.21c.128.783.286 1.56.432 2.339a1.271 1.271 0 0 0 .061.251c.007.018.108.022.137 0s.053-.1.078-.151a2.435 2.435 0 0 1 2.234-1.461 2.476 2.476 0 0 1 2.319 1.33.982.982 0 0 0 .059.115 1.4 1.4 0 0 0 .116.119.532.532 0 0 0 .074-.141c.051-.313.1-.626.141-.942.067-.5.128-1 .195-1.5a1.336 1.336 0 0 1 1.628-1.26c1.272.169 2.543.357 3.812.551.74.101 1.284.689 1.182 1.83zm-.635-.278a.768.768 0 0 0-.731-.925q-1.809-.313-3.621-.614a.857.857 0 0 0-1.144.78q-.456 2.422-.907 4.843c-.064.348-.064.352.292.4q2.052.3 4.106.59a3.11 3.11 0 0 0 .6.06c.488-.024.787-.379.86-.977q.121-.986.251-1.971c.098-.74.2-1.483.294-2.186zm-16.092 5.344a1.229 1.229 0 0 0 .141-.012c1.486-.286 2.972-.577 4.46-.854.277-.052.3-.174.237-.422-.373-1.571-.726-3.147-1.094-4.719-.166-.71-.512-.912-1.239-.754q-1.733.379-3.465.755a.813.813 0 0 0-.729 1.092q.207 1.061.405 2.124c.121.652.233 1.305.356 1.958a.914.914 0 0 0 .929.833zm9.164-2.677a2.071 2.071 0 0 0-2.04-2.136 2.14 2.14 0 0 0-.1 4.278 2.12 2.12 0 0 0 2.14-2.141z" class="cls-2" transform="translate(.528 .233)"/>
                <path id="Path_83" d="M286.469 3481.134a.92.92 0 0 1-.563.951.859.859 0 0 1-1-.306c-.556-.683-1.1-1.374-1.653-2.062l-3.919-4.91c-.082-.1-.162-.2-.24-.308a.307.307 0 0 1 .022-.463.339.339 0 0 1 .472.012 2.158 2.158 0 0 1 .158.148q3.187 3.187 6.368 6.379a2.626 2.626 0 0 1 .355.559z" class="cls-2" transform="translate(1.454 1.451)"/>
                <path id="Path_84" d="M272.48 3454.559a.576.576 0 0 1-.457.67q-.849.257-1.707.483a1.865 1.865 0 0 0-.964.615c-.433.5-.9.979-1.31 1.5-.389.5-.865.351-1.068-.2-.485-1.327-.991-2.647-1.489-3.971l-1.328-3.522a1.207 1.207 0 0 1-.124-.452.417.417 0 0 1 .206-.32.439.439 0 0 1 .36.134 1.1 1.1 0 0 1 .169.393q1.268 3.59 2.533 7.181c.249.7.194.634.672.125.357-.378.689-.781 1.062-1.142a.492.492 0 0 0 .1-.65c-.278-.618-.534-1.246-.8-1.872-.045-.106-.128-.227-.107-.322a.724.724 0 0 1 .221-.417.327.327 0 0 1 .479.144 2.175 2.175 0 0 1 .17.4c.222.6.447 1.188.656 1.788.076.217.17.3.413.224.525-.155 1.061-.272 1.59-.414.4-.108.442-.187.3-.587-.524-1.483-1.055-2.963-1.581-4.443-.145-.408-.29-.816-.425-1.227-.014-.047.034-.114.054-.172.042.032.1.057.121.1a1.738 1.738 0 0 1 .1.24q1.019 2.669 2.035 5.337c.058.141.094.296.119.377z" class="cls-2" transform="translate(.916 .536)"/>
                <path id="Path_85" d="M248.47 3450.711c0-.606.007-1.213 0-1.82a2.022 2.022 0 0 1 2.067-2.041c.966.031 1.935 0 2.9.007a.742.742 0 0 1 .34.028.4.4 0 0 1 .2.276.385.385 0 0 1-.2.278.919.919 0 0 1-.384.03h-2.687a1.429 1.429 0 0 0-1.595 1.571q-.017 1.689 0 3.379a1.424 1.424 0 0 0 1.579 1.543c.751.005 1.5 0 2.253 0a.8.8 0 0 1 .341.02c.108.059.244.187.245.286s-.152.282-.237.283a29.025 29.025 0 0 1-3.329-.056 1.84 1.84 0 0 1-1.491-1.837c-.022-.649 0-1.3 0-1.95z" class="cls-2" transform="translate(.357 .477)"/>
                <path id="Path_86" d="M277.941 3450.7c0 .606-.013 1.212 0 1.818a2.015 2.015 0 0 1-2.084 2.063c-.677-.031-1.356-.005-2.035-.006-.1 0-.225.027-.3-.021-.1-.068-.236-.2-.233-.3a.387.387 0 0 1 .251-.274 3.538 3.538 0 0 1 .69-.023h1.429a1.484 1.484 0 0 0 1.663-1.655c.009-.909 0-1.819 0-2.727a6.433 6.433 0 0 0-.018-.736 1.425 1.425 0 0 0-1.536-1.374c-1.141-.008-2.28 0-3.421 0-.115 0-.231 0-.346-.008a.277.277 0 0 1-.29-.306c0-.195.125-.28.308-.292.086-.005.172-.006.259-.006h3.594a1.955 1.955 0 0 1 2.059 2.027c.022.611.01 1.22.01 1.82z" class="cls-2" transform="translate(1.194 .477)"/>
                <path id="Path_87" d="M241.636 3481.843a.79.79 0 0 1-.624-.436.658.658 0 0 1 .078-.732 1.431 1.431 0 0 1 .258-.227q3.195-2.42 6.392-4.836a.915.915 0 0 1 .364-.217.459.459 0 0 1 .362.138c.056.067.019.237-.017.348-.023.073-.11.129-.174.186q-3.033 2.719-6.07 5.431a3.545 3.545 0 0 1-.569.345z" class="cls-2" transform="translate(.088 1.505)"/>
                <path id="Path_88" d="M241.877 3437.915a2.9 2.9 0 0 1 .408-.487.456.456 0 0 1 .6.064 1.693 1.693 0 0 1 .272.334q2.422 3.486 4.84 6.973c.074.107.187.21.2.326a.61.61 0 0 1-.083.419c-.115.15-.288.094-.419-.027a1.742 1.742 0 0 1-.2-.229q-2.64-3.406-5.274-6.816c-.121-.155-.206-.334-.344-.557z" class="cls-2" transform="translate(.122 .139)"/>
                <path id="Path_89" d="M276.3 3435.978c.067.07.219.157.254.279.245.858.466 1.724.695 2.588a.26.26 0 0 1-.185.336l-2.409 1.073c-.255.114-.413.02-.5-.231-.3-.856-.611-1.71-.907-2.568a.361.361 0 0 1 .23-.521c.857-.3 1.711-.608 2.568-.909a2.078 2.078 0 0 1 .254-.047zm-1.5 3.567c.736-.189 1.4-.358 2.071-.534.139-.036.167-.132.1-.267-.278-.6-.551-1.2-.824-1.8a.214.214 0 0 0-.306-.14c-.554.2-1.111.392-1.665.587-.144.051-.206.128-.146.293.2.552.389 1.111.593 1.663.036.083.13.146.177.198z" class="cls-2" transform="translate(1.249 .088)"/>
                <path id="Path_90" d="M278.721 3446.727c-.317-.014-.454-.262-.314-.47a1.563 1.563 0 0 1 .309-.3q3.036-2.506 6.079-5.009c.1-.082.2-.2.315-.217a.47.47 0 0 1 .369.108c.059.061.042.242 0 .343s-.155.166-.243.238q-3.088 2.55-6.177 5.094a2.8 2.8 0 0 1-.338.213z" class="cls-2" transform="translate(1.43 .264)"/>
                <path id="Path_91" d="M243.005 3463.493a2.039 2.039 0 0 1 2.095 2.063 2.078 2.078 0 0 1-4.155.035 2.031 2.031 0 0 1 2.06-2.098zm-.178.487a1.575 1.575 0 0 0-1.565 1.615 1.587 1.587 0 0 0 3.173-.042 1.571 1.571 0 0 0-1.608-1.573z" class="cls-2" transform="translate(.088 1.078)"/>
                <path id="Path_92" d="M263.3 3480.837c0 .144.009.289 0 .433a.637.637 0 0 1-.654.613.6.6 0 0 1-.636-.621c.019-.735.072-1.468.118-2.2s.107-1.465.154-2.2c.031-.475.111-.633.352-.646s.347.139.381.613q.14 2.005.278 4.011z" class="cls-2" transform="translate(.846 1.535)"/>
                <path id="Path_93" d="M240.277 3456.991l3.326.112a1.156 1.156 0 0 1 .425.059.514.514 0 0 1 .268.274c.053.177-.076.3-.249.341a1.446 1.446 0 0 1-.3.029c-1.267.044-2.534.084-3.8.128-.274.009-.546.047-.819.038a.513.513 0 0 1-.559-.527c.008-.317.255-.511.63-.495l1.078.048z" class="cls-2" transform="translate(0 .843)"/>
                <path id="Path_94" d="M259.171 3462.958v2.947a.716.716 0 0 1-.024.34.5.5 0 0 1-.309.228c-.086.01-.214-.114-.276-.209a.581.581 0 0 1-.034-.3v-5.981c0-.086-.024-.2.019-.254.086-.115.213-.279.319-.276s.273.179.288.3a8.358 8.358 0 0 1 .019.994z" class="cls-2" transform="translate(.721 .931)"/>
                <path id="Path_95" d="M262.945 3436.385v2.122a.784.784 0 0 1-.02.341.537.537 0 0 1-.287.251c-.156.04-.275-.064-.295-.239a2.94 2.94 0 0 1-.011-.3v-4.417c0-.223-.054-.494.276-.544.224-.034.334.146.335.536.004.749.002 1.5.002 2.25z" class="cls-2" transform="translate(.858)"/>
                <path id="Path_96" d="M284.04 3457.753h-2.122a.811.811 0 0 1-.34-.029.354.354 0 0 1-.188-.249.4.4 0 0 1 .184-.294 1.06 1.06 0 0 1 .425-.038h4.027a1.057 1.057 0 0 1 .425.039.379.379 0 0 1 .192.288c-.005.094-.126.213-.226.261a.821.821 0 0 1-.341.023z" class="cls-2" transform="translate(1.543 .85)"/>
                <path id="Path_97" d="M243.018 3449.192c-.522-.159-1.008-.283-1.476-.458a.407.407 0 0 1-.224-.542.415.415 0 0 1 .536-.309 11.924 11.924 0 0 1 1.37.705.362.362 0 0 1 .081.339c-.042.108-.186.173-.287.265z" class="cls-2" transform="translate(.101 .515)"/>
                <path id="Path_98" d="M252.127 3436.739a1.425 1.425 0 0 1-.169.279c-.245.241-.5.475-.753.7a.32.32 0 1 1-.436-.465c.259-.247.512-.5.79-.725a.431.431 0 0 1 .347-.036c.087.031.143.155.221.247z" class="cls-2" transform="translate(.436 .107)"/>
                <path id="Path_99" d="M282.3 3467.59a1.972 1.972 0 0 1 .2-.3c.226-.223.462-.434.7-.648.156-.142.342-.2.5-.038a.322.322 0 0 1-.045.5c-.252.238-.5.481-.77.7a.458.458 0 0 1-.357.053c-.089-.037-.147-.167-.228-.267z" class="cls-2" transform="translate(1.576 1.188)"/>
                <path id="Path_100" d="M282.757 3464.85a2.357 2.357 0 0 1 1.012 1.085.294.294 0 0 1-.487.239 6.27 6.27 0 0 1-.8-.887c-.146-.187.032-.439.275-.437z" class="cls-2" transform="translate(1.581 1.128)"/>
                <path id="Path_101" d="M251.073 3434.787a.835.835 0 0 1 .219.127c.232.233.455.476.675.721a.318.318 0 1 1-.448.452 9 9 0 0 1-.72-.794.313.313 0 0 1 .274-.506z" class="cls-2" transform="translate(.439 .044)"/>
                <path id="Path_102" d="M252.678 3436.188c-.053-.046-.171-.1-.209-.191a.351.351 0 0 1 .023-.311 7.911 7.911 0 0 1 .826-.754.362.362 0 0 1 .344.049c.072.069.117.288.067.34-.285.3-.6.571-.91.848-.019.015-.055.008-.141.019z" class="cls-2" transform="translate(.501 .049)"/>
                <path id="Path_103" d="M285.476 3465.291a.434.434 0 0 1-.074.166 7 7 0 0 1-.76.692.415.415 0 0 1-.41-.042.424.424 0 0 1 .011-.416A4.687 4.687 0 0 1 285 3465a.3.3 0 0 1 .476.291z" class="cls-2" transform="translate(1.646 1.132)"/>
                <path id="Path_104" d="M253.31 3437.933a.742.742 0 0 1-.19-.113c-.209-.217-.415-.44-.611-.669a.294.294 0 0 1 .016-.428.286.286 0 0 1 .427-.011 5.978 5.978 0 0 1 .666.733.319.319 0 0 1-.308.488z" class="cls-2" transform="translate(.5 .112)"/>
                <path id="Path_105" d="M284.453 3466.657a1.265 1.265 0 0 1 .269.161c.193.194.376.4.554.6a.319.319 0 0 1 0 .467.311.311 0 0 1-.464-.028 5.108 5.108 0 0 1-.574-.643.544.544 0 0 1-.025-.4c.015-.061.149-.099.24-.157z" class="cls-2" transform="translate(1.646 1.194)"/>
                <path id="Path_106" d="M259.169 3467.857a.759.759 0 0 1-.038.323.42.42 0 0 1-.291.188.308.308 0 0 1-.245-.174 2.767 2.767 0 0 1-.077-.679.307.307 0 0 1 .324-.331c.237 0 .33.137.328.358z" class="cls-2" transform="translate(.721 1.213)"/>
            </g>
            <path id="Rectangle_31" fill="none" d="M0 0H56V56H0z"/>
        </g>
    </g>
</svg>
