<svg xmlns="http://www.w3.org/2000/svg" width="56" height="56" viewBox="0 0 56 56">
    <defs>
        <style>
            .cls-2{fill:#7039b1}
        </style>
    </defs>
    <g id="iconAbonos" transform="translate(-69 -2051)">
        <rect id="Rectangle_78" width="46" height="46" fill="#ffca00" rx="5" transform="translate(79 2061)"/>
        <g id="Icons_Coppel2" transform="translate(69 2051)">
            <g id="Group_16" transform="translate(-114.494 -3548.36)">
                <path id="Path_62" d="M118.621 3574.576a3.327 3.327 0 0 1 2.159-.36c3.772 0 7.543.014 11.315.017q13.1.012 26.2.016c2.233 0 4.467-.011 6.7-.015a1.911 1.911 0 0 1 2.09 2.063c.019 1.139.016 2.278.02 3.417.008 2.293-.015 4.585.03 6.876a39.72 39.72 0 0 0 .356 5.085.776.776 0 0 1-.269.794.688.688 0 0 1-.79.065.7.7 0 0 1-.375-.738c.068-.747.164-1.491.209-2.239.068-1.136.112-2.273.15-3.411.023-.682.015-1.366.02-2.05q.029-3.8.054-7.6a2.952 2.952 0 0 0-.056-.677 1.242 1.242 0 0 0-1.241-1c-1-.019-2-.042-3.007-.043q-13.7-.01-27.407-.013-2.687 0-5.376.013-4.713.027-9.426.066a1.29 1.29 0 0 0-1.417 1.226c0 .026 0 .054-.006.08a.338.338 0 0 1-.672 0 12.571 12.571 0 0 1 .061-2.12 1.838 1.838 0 0 1 1.659-1.572c.8-.118 1.62-.165 2.432-.238q1.676-.151 3.353-.3c1.039-.089 2.077-.179 3.115-.262a.878.878 0 0 1 .394.035.42.42 0 0 1 .258.49.459.459 0 0 1-.48.4c-.8.059-1.6.11-2.4.165l-4.4.3c-.627.042-1.255.073-1.882.112a1.385 1.385 0 0 0-1.393 1.2 1.285 1.285 0 0 0 .022.218z" class="cls-2" transform="translate(-.014 -.707)"/>
                <path id="Path_63" d="M142.5 3598.662h-7.985q-7.321.011-14.644.037a1.928 1.928 0 0 1-1.965-1.937c.012-2.036-.02-4.073-.036-6.11-.011-1.313.012-2.627-.047-3.939-.07-1.6-.2-3.205-.323-4.807a.747.747 0 0 1 .314-.767.693.693 0 0 1 .794 0 .738.738 0 0 1 .325.77 48.24 48.24 0 0 0-.33 5.369q-.04 4.763-.062 9.526a1.239 1.239 0 0 0 1.256 1.284c.655.021 1.309.042 1.963.043q5.518.013 11.034.015h21.186c1.912 0 3.825 0 5.737-.015 1.818-.011 3.637-.036 5.454-.06a1.218 1.218 0 0 0 1.24-1.169c.024-.441 0-.884 0-1.326 0-.106-.018-.24.036-.312a.59.59 0 0 1 .333-.231.277.277 0 0 1 .314.292 12.4 12.4 0 0 1-.061 1.882 1.764 1.764 0 0 1-1.822 1.49c-2.835 0-5.671-.009-8.506-.013H142.5z" class="cls-2" transform="translate(0 -1.062)"/>
                <path id="Path_64" d="M150.772 3587.277a7.614 7.614 0 0 1-6.374 7.561 7.368 7.368 0 0 1-8.006-4.448 7.836 7.836 0 0 1 2.5-9.388 7.47 7.47 0 0 1 9.492.675 7.581 7.581 0 0 1 2.388 5.6zm-1.166-.1a5.982 5.982 0 0 0-.3-1.918 6.855 6.855 0 0 0-9.351-4.117 6.644 6.644 0 0 0-3.647 8.484 6.967 6.967 0 0 0 7.529 4.3 6.769 6.769 0 0 0 5.769-6.75z" class="cls-2" transform="translate(-.745 -1.009)"/>
                <path id="Path_65" d="M148.77 3566.609c-.564-.1-1.127-.2-1.69-.294-.831-.142-1.661-.286-2.494-.418a.563.563 0 0 1-.467-.372c-.518-1.147-1.05-2.287-1.577-3.43-.065-.14-.136-.279-.248-.512l-2.186 4.141-4.649.561c.332.348.593.625.857.9.727.75 1.453 1.5 2.188 2.245a.483.483 0 0 1 .164.493c-.2.982-.383 1.969-.582 2.952-.066.325-.335.45-.554.28-.168-.131-.137-.3-.1-.479.16-.813.309-1.63.49-2.439a.581.581 0 0 0-.168-.607c-.924-.933-1.829-1.884-2.751-2.818a.723.723 0 0 1-.239-.794c.108-.3.372-.377.673-.412 1.329-.149 2.657-.32 3.987-.47a.463.463 0 0 0 .388-.294q.912-1.745 1.836-3.482a1.3 1.3 0 0 1 .272-.39.633.633 0 0 1 .989.293c.39.823.765 1.653 1.146 2.479.185.4.381.8.552 1.2a.523.523 0 0 0 .445.344c1.294.212 2.585.435 3.878.654.45.076.64.227.695.55a.711.711 0 0 1-.283.668q-1.15 1.062-2.3 2.129a6.766 6.766 0 0 1-.564.513.647.647 0 0 0-.243.707c.1.634.2 1.269.29 1.9a2.1 2.1 0 0 1 .02.32.3.3 0 0 1-.284.326.306.306 0 0 1-.354-.255 1.546 1.546 0 0 1-.047-.195c-.114-.808-.207-1.62-.351-2.422a.623.623 0 0 1 .243-.65c.932-.847 1.851-1.708 2.779-2.559a2.368 2.368 0 0 1 .336-.22z" class="cls-2" transform="translate(-.703 -.208)"/>
                <path id="Path_66" d="M126.107 3565.7c.063-.712.11-1.353.18-1.99a.509.509 0 0 0-.2-.52c-.453-.355-.888-.733-1.34-1.089a.579.579 0 0 1-.279-.614c.056-.253.266-.319.474-.375.543-.146 1.084-.3 1.631-.421a.575.575 0 0 0 .462-.432c.174-.534.375-1.059.556-1.59.082-.241.19-.442.472-.484a.62.62 0 0 1 .659.352c.291.466.6.917.893 1.383a.536.536 0 0 0 .513.295c.535 0 1.07.039 1.6.054a.7.7 0 0 1 .685.4.744.744 0 0 1-.111.826c-.337.417-.672.833-1.021 1.24a.525.525 0 0 0-.119.548c.145.487.261.982.387 1.474a2.007 2.007 0 0 1 .052.235c.087.635-.343.979-.937.739-.52-.211-1.04-.426-1.549-.663a.6.6 0 0 0-.661.048c-.509.346-1.031.674-1.561.987a.486.486 0 0 1-.786-.403zm4.878-4.349l-.054-.088c-.423-.032-.848-.076-1.272-.093a.755.755 0 0 1-.666-.438c-.19-.339-.394-.67-.6-1a1.962 1.962 0 0 0-.206-.229c-.181.444-.366.83-.5 1.235a.853.853 0 0 1-.731.642c-.485.086-.961.219-1.515.349.154.135.247.224.349.3a8.266 8.266 0 0 0 .772.578 1.011 1.011 0 0 1 .492 1.157 8.021 8.021 0 0 0-.012 1.2 8.187 8.187 0 0 0 .9-.617 1.228 1.228 0 0 1 1.542-.177 7.308 7.308 0 0 0 .8.31l.068-.077c-.1-.355-.186-.718-.314-1.063a1 1 0 0 1 .233-1.139c.257-.263.477-.564.714-.848z" class="cls-2" transform="translate(-.264 -.107)"/>
                <path id="Path_67" d="M160.482 3558.051a2.358 2.358 0 0 1 0 .481.893.893 0 0 0 .519 1.042c.379.225.721.511 1.081.765a.543.543 0 0 1-.169 1.021c-.5.149-.994.317-1.5.447a.648.648 0 0 0-.534.513c-.131.5-.3 1-.463 1.493-.075.232-.156.46-.454.5a.592.592 0 0 1-.593-.327c-.31-.453-.635-.9-.937-1.354a.546.546 0 0 0-.531-.27c-.548.018-1.1.007-1.646.014a.546.546 0 0 1-.571-.287.583.583 0 0 1 .1-.636c.312-.4.594-.828.926-1.211a.722.722 0 0 0 .128-.838c-.172-.435-.3-.886-.455-1.328-.093-.265-.154-.519.082-.743a.613.613 0 0 1 .709-.057c.477.173.964.32 1.437.5a.593.593 0 0 0 .658-.093c.429-.342.879-.656 1.322-.98a.545.545 0 0 1 .6-.1.5.5 0 0 1 .3.481v.964zm-4.363-.045c.038.16.056.261.087.357.123.382.234.769.38 1.142a.784.784 0 0 1-.144.89c-.151.168-.278.36-.414.543-.165.222-.328.445-.527.717.171.018.271.037.372.036.374 0 .75.01 1.124-.018a.9.9 0 0 1 .933.477c.2.345.454.663.688.99a2.586 2.586 0 0 0 .206.218c.063-.171.114-.292.154-.417.123-.381.255-.761.361-1.147a.7.7 0 0 1 .543-.525c.438-.121.871-.261 1.3-.4a2.36 2.36 0 0 0 .27-.133c-.357-.257-.674-.477-.985-.708-.747-.554-.683-.32-.68-1.378v-1.21c-.178.115-.29.182-.394.258-.3.22-.614.433-.9.671a.807.807 0 0 1-.895.126c-.358-.146-.729-.262-1.1-.388-.104-.037-.215-.059-.379-.101z" class="cls-2" transform="translate(-1.514 -.045)"/>
                <path id="Path_68" d="M164.516 3571.646c0 .362.008.723 0 1.085-.007.284-.115.408-.33.415-.231.008-.353-.124-.36-.425-.012-.617 0-1.233-.021-1.849-.022-.712-.334-1.006-1.036-.952-1.134.086-2.267.2-3.4.3q-1.56.137-3.121.27c-.266.023-.533.059-.8.073-.431.023-.658-.131-.683-.443s.189-.5.616-.541c.453-.041.908-.062 1.362-.089l4.33-.265c.535-.033 1.073-.04 1.6-.108a1.587 1.587 0 0 1 1.858 1.649c-.021.293 0 .589 0 .884z" class="cls-2" transform="translate(-1.519 -.552)"/>
                <path id="Path_69" d="M155.81 3564.358a3.133 3.133 0 0 1-.3.361 7.507 7.507 0 0 0-1.946 2.529 7.938 7.938 0 0 0-.475 5.067 1.967 1.967 0 0 1 .063.354.494.494 0 0 1-.942.227 1.726 1.726 0 0 1-.131-.5 8.15 8.15 0 0 1 3.1-7.865c.286-.231.289-.231.631-.173z" class="cls-2" transform="translate(-1.385 -.363)"/>
                <path id="Path_70" d="M128.973 3567.033c.166-.237.316-.129.465-.036a4.156 4.156 0 0 1 1.434 1.595 7.642 7.642 0 0 1 .808 2.55c.068.476.106.957.14 1.437a2.084 2.084 0 0 1-.034.558.569.569 0 0 1-.706.481.6.6 0 0 1-.481-.683c.03-.346.065-.692.094-1.038a7.276 7.276 0 0 0-.246-2.541 4.005 4.005 0 0 0-1.273-2.1 1.954 1.954 0 0 1-.201-.223z" class="cls-2" transform="translate(-.46 -.465)"/>
                <path id="Path_71" d="M134.877 3558.125c-.242 0-.367-.193-.258-.394a2.551 2.551 0 0 1 .415-.579.377.377 0 0 1 .343-.032.311.311 0 0 1 .1.292 5.072 5.072 0 0 1-.451.65c-.036.044-.118.051-.149.063z" class="cls-2" transform="translate(-.684 -.066)"/>
                <path id="Path_72" d="M147.774 3561.994a1.482 1.482 0 0 1-.563.831.314.314 0 0 1-.252-.051.327.327 0 0 1-.072-.281 3.869 3.869 0 0 1 .457-.646.333.333 0 0 1 .291-.028c.065.025.108.134.139.175z" class="cls-2" transform="translate(-1.175 -.245)"/>
                <path id="Path_73" d="M136.078 3556.361c-.2-.04-.308-.172-.241-.317a2.988 2.988 0 0 1 .434-.652c.04-.048.218-.037.289.011s.137.211.1.264a5.974 5.974 0 0 1-.463.641c-.022.036-.088.041-.119.053z" class="cls-2" transform="translate(-.733)"/>
                <path id="Path_74" d="M148.349 3561.058c-.177 0-.326-.166-.244-.322a2.624 2.624 0 0 1 .465-.638c.132-.13.455.069.38.227a4.424 4.424 0 0 1-.523.724c-.011.014-.052.007-.078.009z" class="cls-2" transform="translate(-1.224 -.179)"/>
                <path id="Path_75" d="M149.217 3562.115c.011.19-.148.351-.311.277a2.61 2.61 0 0 1-.615-.422c-.047-.042-.028-.208.015-.288.034-.063.184-.137.227-.112a7.376 7.376 0 0 1 .65.45c.028.018.028.072.034.095z" class="cls-2" transform="translate(-1.231 -.236)"/>
                <path id="Path_76" d="M136.938 3557.422a.262.262 0 0 1-.366.251 2.409 2.409 0 0 1-.519-.369.315.315 0 0 1-.052-.285c.032-.074.192-.173.235-.15a7.167 7.167 0 0 1 .682.452c.022.015.015.079.02.101z" class="cls-2" transform="translate(-.74 -.057)"/>
                <path id="Path_77" d="M147.559 3561.148c-.088.061-.224.211-.279.186a2.435 2.435 0 0 1-.679-.437c-.12-.119.07-.4.228-.342a3.793 3.793 0 0 1 .686.43c.023.015.021.073.044.163z" class="cls-2" transform="translate(-1.163 -.197)"/>
                <path id="Path_78" d="M135.257 3556.356c0 .166-.168.328-.32.26a2.1 2.1 0 0 1-.592-.388c-.12-.116-.057-.282.1-.363.216-.112.81.251.812.491z" class="cls-2" transform="translate(-.672 -.019)"/>
            </g>
            <path id="Rectangle_29" fill="none" d="M0 0H56V56H0z"/>
        </g>
    </g>
</svg>
